<?xml version="1.0" encoding="UTF-8"?>
<svg xmlns="http://www.w3.org/2000/svg" version="1.1" width="200" height="200" viewBox="0 0 200 200"><rect x="0" y="0" width="200" height="200" fill="#ffffff"/><g transform="scale(6.897)"><g transform="translate(0,0)"><path fill-rule="evenodd" d="M10 0L10 1L9 1L9 2L8 2L8 3L9 3L9 5L10 5L10 7L11 7L11 10L10 10L10 9L9 9L9 6L8 6L8 8L4 8L4 9L3 9L3 8L0 8L0 9L1 9L1 10L4 10L4 12L2 12L2 11L0 11L0 13L4 13L4 15L3 15L3 14L1 14L1 16L0 16L0 17L2 17L2 16L3 16L3 18L2 18L2 19L1 19L1 18L0 18L0 19L1 19L1 20L0 20L0 21L1 21L1 20L2 20L2 21L3 21L3 20L2 20L2 19L4 19L4 21L7 21L7 20L8 20L8 18L9 18L9 19L10 19L10 20L9 20L9 21L8 21L8 25L9 25L9 26L8 26L8 29L9 29L9 28L10 28L10 29L11 29L11 26L13 26L13 25L16 25L16 27L13 27L13 28L12 28L12 29L13 29L13 28L17 28L17 29L18 29L18 28L20 28L20 29L23 29L23 28L22 28L22 25L24 25L24 27L25 27L25 29L26 29L26 27L27 27L27 29L29 29L29 28L28 28L28 27L29 27L29 24L28 24L28 27L27 27L27 26L26 26L26 22L27 22L27 23L29 23L29 21L26 21L26 22L25 22L25 20L26 20L26 18L27 18L27 20L28 20L28 19L29 19L29 16L28 16L28 15L29 15L29 12L28 12L28 11L29 11L29 9L28 9L28 10L26 10L26 9L27 9L27 8L26 8L26 9L25 9L25 10L24 10L24 9L23 9L23 8L21 8L21 9L22 9L22 10L20 10L20 11L21 11L21 12L22 12L22 14L24 14L24 11L25 11L25 14L27 14L27 17L26 17L26 18L25 18L25 20L24 20L24 19L22 19L22 18L24 18L24 17L23 17L23 16L22 16L22 15L21 15L21 16L22 16L22 17L21 17L21 18L20 18L20 22L19 22L19 21L18 21L18 20L19 20L19 18L18 18L18 19L17 19L17 18L16 18L16 19L17 19L17 21L16 21L16 22L17 22L17 23L16 23L16 24L14 24L14 22L15 22L15 21L11 21L11 20L15 20L15 19L14 19L14 18L13 18L13 17L18 17L18 14L19 14L19 13L20 13L20 12L19 12L19 11L18 11L18 10L17 10L17 9L20 9L20 7L21 7L21 6L20 6L20 5L21 5L21 2L20 2L20 1L21 1L21 0L19 0L19 2L18 2L18 1L16 1L16 0L14 0L14 1L15 1L15 2L18 2L18 3L19 3L19 6L18 6L18 5L17 5L17 6L16 6L16 3L14 3L14 4L12 4L12 5L10 5L10 3L9 3L9 2L10 2L10 1L11 1L11 0ZM11 2L11 3L12 3L12 2ZM19 2L19 3L20 3L20 2ZM12 5L12 6L11 6L11 7L12 7L12 9L13 9L13 11L12 11L12 10L11 10L11 11L12 11L12 13L13 13L13 14L11 14L11 17L10 17L10 12L7 12L7 11L6 11L6 10L8 10L8 11L10 11L10 10L8 10L8 9L6 9L6 10L5 10L5 9L4 9L4 10L5 10L5 12L4 12L4 13L6 13L6 14L5 14L5 15L4 15L4 18L8 18L8 17L5 17L5 15L6 15L6 16L7 16L7 15L8 15L8 16L9 16L9 17L10 17L10 19L13 19L13 18L11 18L11 17L13 17L13 16L12 16L12 15L13 15L13 14L14 14L14 16L16 16L16 15L17 15L17 14L16 14L16 12L17 12L17 10L16 10L16 9L15 9L15 8L14 8L14 9L13 9L13 7L14 7L14 6L15 6L15 7L16 7L16 8L17 8L17 7L18 7L18 8L19 8L19 7L20 7L20 6L19 6L19 7L18 7L18 6L17 6L17 7L16 7L16 6L15 6L15 5ZM12 6L12 7L13 7L13 6ZM14 10L14 11L13 11L13 13L14 13L14 12L15 12L15 10ZM25 10L25 11L26 11L26 13L27 13L27 14L28 14L28 13L27 13L27 11L26 11L26 10ZM6 12L6 13L7 13L7 12ZM18 12L18 13L19 13L19 12ZM6 14L6 15L7 15L7 14ZM8 14L8 15L9 15L9 14ZM19 15L19 17L20 17L20 15ZM24 15L24 16L26 16L26 15ZM27 17L27 18L28 18L28 17ZM5 19L5 20L7 20L7 19ZM10 21L10 22L9 22L9 23L10 23L10 24L9 24L9 25L10 25L10 24L11 24L11 23L12 23L12 24L13 24L13 23L12 23L12 22L11 22L11 21ZM21 21L21 24L24 24L24 21ZM10 22L10 23L11 23L11 22ZM22 22L22 23L23 23L23 22ZM18 24L18 25L17 25L17 27L18 27L18 26L19 26L19 25L20 25L20 24ZM9 26L9 27L10 27L10 26ZM20 26L20 27L21 27L21 26ZM0 0L0 7L7 7L7 0ZM1 1L1 6L6 6L6 1ZM2 2L2 5L5 5L5 2ZM22 0L22 7L29 7L29 0ZM23 1L23 6L28 6L28 1ZM24 2L24 5L27 5L27 2ZM0 22L0 29L7 29L7 22ZM1 23L1 28L6 28L6 23ZM2 24L2 27L5 27L5 24Z" fill="#000000"/></g></g></svg>
