<?xml version="1.0" encoding="UTF-8"?>
<svg xmlns="http://www.w3.org/2000/svg" version="1.1" width="200" height="200" viewBox="0 0 200 200"><rect x="0" y="0" width="200" height="200" fill="#ffffff"/><g transform="scale(6.897)"><g transform="translate(0,0)"><path fill-rule="evenodd" d="M8 0L8 1L9 1L9 2L8 2L8 5L9 5L9 4L11 4L11 5L10 5L10 10L8 10L8 11L7 11L7 10L6 10L6 11L4 11L4 10L5 10L5 9L4 9L4 8L0 8L0 9L3 9L3 10L0 10L0 15L1 15L1 16L0 16L0 17L3 17L3 18L2 18L2 19L3 19L3 20L1 20L1 21L8 21L8 22L11 22L11 23L10 23L10 24L9 24L9 25L8 25L8 29L11 29L11 28L12 28L12 27L14 27L14 28L15 28L15 29L16 29L16 28L17 28L17 27L18 27L18 28L20 28L20 29L21 29L21 27L22 27L22 25L23 25L23 28L24 28L24 29L25 29L25 28L26 28L26 25L27 25L27 24L26 24L26 25L25 25L25 23L26 23L26 22L27 22L27 23L28 23L28 22L29 22L29 21L27 21L27 18L28 18L28 15L29 15L29 13L27 13L27 12L26 12L26 11L28 11L28 12L29 12L29 11L28 11L28 10L29 10L29 8L28 8L28 10L26 10L26 11L24 11L24 10L25 10L25 9L27 9L27 8L24 8L24 9L22 9L22 8L21 8L21 6L20 6L20 5L21 5L21 4L20 4L20 3L21 3L21 2L20 2L20 3L19 3L19 6L18 6L18 7L17 7L17 6L16 6L16 7L15 7L15 5L17 5L17 4L18 4L18 3L17 3L17 0L16 0L16 3L17 3L17 4L14 4L14 0L12 0L12 1L11 1L11 0L10 0L10 1L9 1L9 0ZM19 0L19 1L18 1L18 2L19 2L19 1L21 1L21 0ZM11 2L11 4L12 4L12 3L13 3L13 2ZM12 5L12 6L11 6L11 8L12 8L12 6L13 6L13 8L15 8L15 7L14 7L14 5ZM8 6L8 7L9 7L9 6ZM19 6L19 8L20 8L20 6ZM16 7L16 8L17 8L17 7ZM6 8L6 9L7 9L7 8ZM8 8L8 9L9 9L9 8ZM11 9L11 10L12 10L12 9ZM13 9L13 10L14 10L14 13L15 13L15 11L16 11L16 9L15 9L15 10L14 10L14 9ZM17 9L17 12L16 12L16 13L17 13L17 14L15 14L15 15L17 15L17 16L14 16L14 15L13 15L13 14L12 14L12 16L11 16L11 15L10 15L10 14L11 14L11 13L12 13L12 12L13 12L13 11L11 11L11 13L10 13L10 14L9 14L9 13L8 13L8 14L9 14L9 15L10 15L10 16L9 16L9 17L6 17L6 18L4 18L4 20L5 20L5 19L6 19L6 20L7 20L7 19L8 19L8 18L9 18L9 19L11 19L11 20L10 20L10 21L12 21L12 18L13 18L13 17L14 17L14 18L15 18L15 17L16 17L16 19L15 19L15 20L17 20L17 19L18 19L18 20L19 20L19 21L20 21L20 19L21 19L21 16L22 16L22 19L23 19L23 16L24 16L24 15L25 15L25 17L24 17L24 20L26 20L26 19L25 19L25 18L26 18L26 17L27 17L27 15L25 15L25 14L27 14L27 13L25 13L25 12L22 12L22 10L21 10L21 9L20 9L20 10L19 10L19 9ZM20 10L20 11L18 11L18 12L17 12L17 13L18 13L18 12L20 12L20 13L19 13L19 15L20 15L20 14L21 14L21 15L22 15L22 16L23 16L23 15L24 15L24 14L23 14L23 13L22 13L22 14L21 14L21 12L20 12L20 11L21 11L21 10ZM1 11L1 12L3 12L3 13L1 13L1 14L4 14L4 15L2 15L2 16L3 16L3 17L5 17L5 16L7 16L7 15L5 15L5 14L4 14L4 11ZM6 11L6 12L7 12L7 11ZM8 11L8 12L9 12L9 11ZM6 13L6 14L7 14L7 13ZM22 14L22 15L23 15L23 14ZM10 16L10 17L9 17L9 18L11 18L11 16ZM18 16L18 18L19 18L19 16ZM0 18L0 19L1 19L1 18ZM6 18L6 19L7 19L7 18ZM13 19L13 20L14 20L14 19ZM8 20L8 21L9 21L9 20ZM13 21L13 22L12 22L12 23L11 23L11 24L10 24L10 25L9 25L9 28L11 28L11 27L12 27L12 26L15 26L15 28L16 28L16 27L17 27L17 26L15 26L15 24L14 24L14 25L13 25L13 22L15 22L15 23L16 23L16 21ZM21 21L21 24L24 24L24 21ZM17 22L17 24L16 24L16 25L17 25L17 24L18 24L18 25L19 25L19 26L18 26L18 27L19 27L19 26L21 26L21 25L20 25L20 24L18 24L18 22ZM22 22L22 23L23 23L23 22ZM28 24L28 27L27 27L27 29L28 29L28 27L29 27L29 24ZM24 26L24 28L25 28L25 26ZM0 0L0 7L7 7L7 0ZM1 1L1 6L6 6L6 1ZM2 2L2 5L5 5L5 2ZM22 0L22 7L29 7L29 0ZM23 1L23 6L28 6L28 1ZM24 2L24 5L27 5L27 2ZM0 22L0 29L7 29L7 22ZM1 23L1 28L6 28L6 23ZM2 24L2 27L5 27L5 24Z" fill="#000000"/></g></g></svg>
