<?xml version="1.0" encoding="UTF-8"?>
<svg xmlns="http://www.w3.org/2000/svg" version="1.1" width="200" height="200" viewBox="0 0 200 200"><rect x="0" y="0" width="200" height="200" fill="#ffffff"/><g transform="scale(6.897)"><g transform="translate(0,0)"><path fill-rule="evenodd" d="M9 0L9 1L8 1L8 2L9 2L9 3L8 3L8 4L10 4L10 7L11 7L11 4L12 4L12 8L6 8L6 9L7 9L7 10L3 10L3 9L5 9L5 8L0 8L0 10L1 10L1 11L0 11L0 12L1 12L1 13L2 13L2 12L1 12L1 11L2 11L2 10L3 10L3 13L7 13L7 14L5 14L5 15L4 15L4 16L5 16L5 15L7 15L7 16L6 16L6 17L4 17L4 18L3 18L3 17L2 17L2 16L1 16L1 15L3 15L3 14L1 14L1 15L0 15L0 16L1 16L1 17L0 17L0 21L1 21L1 17L2 17L2 18L3 18L3 19L2 19L2 21L4 21L4 20L5 20L5 21L8 21L8 23L9 23L9 24L8 24L8 29L9 29L9 28L10 28L10 29L11 29L11 28L10 28L10 27L9 27L9 26L11 26L11 25L13 25L13 26L14 26L14 29L18 29L18 28L17 28L17 27L16 27L16 26L18 26L18 27L20 27L20 28L22 28L22 27L23 27L23 28L25 28L25 29L27 29L27 28L28 28L28 26L29 26L29 25L28 25L28 24L25 24L25 23L27 23L27 22L29 22L29 20L28 20L28 19L27 19L27 16L28 16L28 15L27 15L27 12L28 12L28 11L27 11L27 12L25 12L25 9L26 9L26 8L25 8L25 9L24 9L24 8L23 8L23 9L22 9L22 8L19 8L19 5L20 5L20 4L21 4L21 3L20 3L20 4L19 4L19 1L20 1L20 0L19 0L19 1L18 1L18 3L17 3L17 0L16 0L16 1L15 1L15 2L14 2L14 1L11 1L11 2L10 2L10 0ZM12 2L12 3L14 3L14 2ZM10 3L10 4L11 4L11 3ZM16 3L16 4L14 4L14 6L13 6L13 8L12 8L12 9L13 9L13 8L14 8L14 6L15 6L15 7L16 7L16 8L15 8L15 9L14 9L14 10L13 10L13 12L12 12L12 10L11 10L11 9L10 9L10 11L11 11L11 12L10 12L10 13L11 13L11 14L9 14L9 13L8 13L8 12L7 12L7 11L8 11L8 10L7 10L7 11L6 11L6 12L7 12L7 13L8 13L8 14L9 14L9 15L8 15L8 16L9 16L9 17L8 17L8 18L9 18L9 19L5 19L5 20L8 20L8 21L10 21L10 22L9 22L9 23L10 23L10 22L11 22L11 23L12 23L12 22L14 22L14 19L13 19L13 16L14 16L14 18L16 18L16 19L15 19L15 20L18 20L18 21L17 21L17 22L19 22L19 21L20 21L20 20L19 20L19 19L22 19L22 18L21 18L21 17L20 17L20 18L19 18L19 19L18 19L18 18L17 18L17 16L18 16L18 17L19 17L19 16L21 16L21 15L20 15L20 14L22 14L22 13L23 13L23 15L22 15L22 17L23 17L23 20L24 20L24 19L25 19L25 21L26 21L26 20L27 20L27 19L25 19L25 18L24 18L24 17L26 17L26 16L27 16L27 15L26 15L26 13L25 13L25 12L24 12L24 11L23 11L23 10L24 10L24 9L23 9L23 10L22 10L22 9L20 9L20 10L18 10L18 11L15 11L15 10L16 10L16 9L17 9L17 8L18 8L18 5L19 5L19 4L17 4L17 3ZM16 4L16 5L15 5L15 6L16 6L16 7L17 7L17 6L16 6L16 5L17 5L17 4ZM8 5L8 7L9 7L9 5ZM20 6L20 7L21 7L21 6ZM27 8L27 9L28 9L28 10L29 10L29 9L28 9L28 8ZM1 9L1 10L2 10L2 9ZM14 11L14 12L13 12L13 14L12 14L12 16L11 16L11 15L10 15L10 16L11 16L11 17L9 17L9 18L11 18L11 17L12 17L12 16L13 16L13 15L16 15L16 16L17 16L17 15L18 15L18 16L19 16L19 15L18 15L18 14L17 14L17 13L18 13L18 12L17 12L17 13L16 13L16 12L15 12L15 11ZM19 11L19 14L20 14L20 13L22 13L22 12L23 12L23 13L24 13L24 14L25 14L25 13L24 13L24 12L23 12L23 11L21 11L21 12L20 12L20 11ZM11 12L11 13L12 13L12 12ZM14 13L14 14L16 14L16 13ZM28 13L28 14L29 14L29 13ZM23 15L23 16L24 16L24 15ZM6 17L6 18L7 18L7 17ZM28 17L28 18L29 18L29 17ZM12 20L12 21L13 21L13 20ZM15 21L15 22L16 22L16 21ZM21 21L21 24L24 24L24 21ZM22 22L22 23L23 23L23 22ZM13 23L13 24L14 24L14 26L16 26L16 25L17 25L17 24L18 24L18 25L19 25L19 26L20 26L20 23L17 23L17 24L16 24L16 23ZM9 24L9 25L10 25L10 24ZM22 25L22 26L21 26L21 27L22 27L22 26L23 26L23 27L24 27L24 26L26 26L26 27L25 27L25 28L27 28L27 26L28 26L28 25L24 25L24 26L23 26L23 25ZM0 0L0 7L7 7L7 0ZM1 1L1 6L6 6L6 1ZM2 2L2 5L5 5L5 2ZM22 0L22 7L29 7L29 0ZM23 1L23 6L28 6L28 1ZM24 2L24 5L27 5L27 2ZM0 22L0 29L7 29L7 22ZM1 23L1 28L6 28L6 23ZM2 24L2 27L5 27L5 24Z" fill="#000000"/></g></g></svg>
